<svg width="85" height="81" viewBox="0 0 85 81" fill="none" xmlns="http://www.w3.org/2000/svg">
<rect x="35.5" y="31.5" width="46" height="46" stroke="#67BBBD" stroke-opacity="0.52" stroke-width="7"/>
<g clip-path="url(#clip0)">
<path d="M56.2331 26.0046C56.1592 26.0046 56.0844 25.9971 56.0118 25.982C55.9393 25.9674 55.868 25.9458 55.8003 25.9174C55.7313 25.8891 55.6654 25.8542 55.6043 25.8135C55.5419 25.7727 55.4839 25.725 55.4322 25.6727C55.38 25.621 55.3322 25.5621 55.2915 25.5006C55.2507 25.4382 55.2158 25.3727 55.1875 25.3046C55.1591 25.2369 55.1366 25.1656 55.1229 25.0931C55.1083 25.0192 55.1003 24.9457 55.1003 24.8718C55.1003 24.7975 55.1083 24.7236 55.1229 24.6501C55.1366 24.5775 55.1591 24.5072 55.1875 24.4381C55.2158 24.37 55.2507 24.3045 55.2915 24.2434C55.3322 24.1811 55.38 24.1231 55.4322 24.07C55.4839 24.0178 55.5419 23.9704 55.6043 23.9297C55.6654 23.889 55.7313 23.8536 55.8003 23.8253C55.868 23.797 55.9397 23.7757 56.0118 23.7607C56.1583 23.7315 56.3074 23.7315 56.4539 23.7607C56.5265 23.7757 56.5977 23.797 56.6668 23.8253C56.7349 23.8536 56.8004 23.889 56.8615 23.9297C56.9239 23.9704 56.9818 24.0178 57.034 24.07C57.0858 24.1235 57.1336 24.1811 57.1756 24.2434C57.2163 24.3045 57.2513 24.37 57.2796 24.4381C57.3079 24.5072 57.3296 24.5775 57.3442 24.6501C57.3588 24.7236 57.3659 24.7975 57.3659 24.8718C57.3659 24.9457 57.3588 25.0192 57.3442 25.0931C57.3296 25.1656 57.3079 25.2369 57.2796 25.3046C57.2513 25.3727 57.2163 25.4382 57.1756 25.5006C57.1336 25.5621 57.0858 25.621 57.034 25.6727C56.9818 25.725 56.9239 25.7727 56.8615 25.8135C56.8004 25.8542 56.7349 25.8891 56.6668 25.9174C56.5977 25.9458 56.5265 25.9674 56.4539 25.982C56.3813 25.9971 56.3066 26.0046 56.2331 26.0046Z" fill="#403f3f"/>
<path d="M39.7245 27.7142H30.8696C30.2443 27.7142 29.7368 27.207 29.7368 26.5813V20.8336C29.7368 17.8388 32.1736 15.4023 35.1681 15.4023H35.4261C38.4209 15.4023 40.8574 17.8388 40.8574 20.8336V26.5813C40.8574 27.207 40.3503 27.7142 39.7245 27.7142ZM32.0024 25.4485H38.5917V20.8336C38.5917 19.0884 37.1717 17.668 35.4265 17.668H35.1681C33.4228 17.668 32.0028 19.0884 32.0028 20.8336V25.4485H32.0024Z" fill="#403f3f"/>
<path d="M56.2331 28.7503C55.6074 28.7503 55.1002 29.2574 55.1002 29.8831V46.9244H11.7657V1.34644C11.7657 0.720734 11.2582 0.213623 10.6329 0.213623H1.92576C1.30006 0.213623 0.792948 0.720734 0.792948 1.34644V56.7538C0.792948 57.3795 1.30006 57.8866 1.92576 57.8866H56.2331C56.8583 57.8866 57.3659 57.3795 57.3659 56.7538V29.8831C57.3659 29.2574 56.8588 28.7503 56.2331 28.7503ZM3.05857 2.47925H9.50012V9.88191H8.03675C7.41105 9.88191 6.90394 10.389 6.90394 11.0147C6.90394 11.6404 7.41105 12.1475 8.03675 12.1475H9.50012V19.7737H8.03675C7.41105 19.7737 6.90394 20.2812 6.90394 20.9065C6.90394 21.5322 7.41105 22.0393 8.03675 22.0393H9.50012V29.6654H8.03675C7.41105 29.6654 6.90394 30.1725 6.90394 30.7982C6.90394 31.4239 7.41105 31.931 8.03675 31.931H9.50012V39.5572H8.03675C7.41105 39.5572 6.90394 40.0643 6.90394 40.69C6.90394 41.3157 7.41105 41.8228 8.03675 41.8228H9.50012V49.4489H8.03675C7.41105 49.4489 6.90394 49.9565 6.90394 50.5817C6.90394 51.2074 7.41105 51.7146 8.03675 51.7146H9.50012V55.621H3.05857V2.47925ZM55.1002 55.621H11.7657V49.1901H16.8758V50.6503C16.8758 51.2756 17.3829 51.7831 18.0086 51.7831C18.6343 51.7831 19.1414 51.2756 19.1414 50.6503V49.1901H26.7795V50.6503C26.7795 51.2756 27.2866 51.7831 27.9123 51.7831C28.538 51.7831 29.0451 51.2756 29.0451 50.6503V49.1901H36.6832V50.6503C36.6832 51.2756 37.1907 51.7831 37.816 51.7831C38.4417 51.7831 38.9488 51.2756 38.9488 50.6503V49.1901H46.5869V50.6503C46.5869 51.2756 47.0944 51.7831 47.7197 51.7831C48.3454 51.7831 48.8525 51.2756 48.8525 50.6503V49.1901H55.1002V55.621Z" fill="#403f3f"/>
<path d="M17.8953 23.2881C18.3122 23.7138 18.987 23.7439 19.4401 23.3581L20.257 22.662V42.9562C20.257 43.5814 20.7645 44.089 21.3898 44.089H49.2047C49.83 44.089 50.3376 43.5814 50.3376 42.9562V22.662L51.1544 23.3581C51.3668 23.5395 51.6283 23.6289 51.889 23.6289C52.1837 23.6289 52.478 23.5138 52.6988 23.2881L56.3021 19.6043C56.5193 19.3822 56.6357 19.0804 56.6242 18.7702C56.6127 18.46 56.4742 18.1675 56.241 17.9622L36.046 0.169479C35.6181 -0.207535 34.9765 -0.207535 34.5485 0.169479L14.3535 17.9622C14.1203 18.1675 13.9818 18.46 13.9703 18.7702C13.9588 19.0804 14.0752 19.3822 14.2925 19.6043L17.8953 23.2881ZM32.0024 41.8233V34.0428H38.5917V41.8233H32.0024ZM48.0719 41.8233H40.8573V32.91C40.8573 32.2843 40.3502 31.7772 39.7245 31.7772H30.8696C30.2443 31.7772 29.7368 32.2843 29.7368 32.91V41.8233H22.5226V20.7309L35.2973 9.84441L48.0719 20.7309V41.8233ZM35.2973 2.52936L53.8479 18.8733L51.8191 20.9477L36.0318 7.49382C35.6083 7.13274 34.9857 7.13274 34.5623 7.49382L18.7755 20.9477L16.7466 18.8733L35.2973 2.52936Z" fill="#403f3f"/>
</g>
<defs>
<clipPath id="clip0">
<rect width="58" height="58" fill="white"/>
</clipPath>
</defs>
</svg>
