<svg width="85" height="84" viewBox="0 0 85 84" fill="none" xmlns="http://www.w3.org/2000/svg">
<rect x="35.5" y="34.5" width="46" height="46" stroke="#67BBBD" stroke-opacity="0.52" stroke-width="7"/>
<path d="M29 15.4062C22.4412 15.4062 17.1055 20.742 17.1055 27.3008C17.1055 33.8596 22.4412 39.1953 29 39.1953C35.5588 39.1953 40.8945 33.8596 40.8945 27.3008C40.8945 20.742 35.5588 15.4062 29 15.4062ZM30.6992 27.3008C30.6992 28.2376 29.9368 29 29 29C28.0632 29 27.3008 28.2376 27.3008 27.3008C27.3008 26.364 28.0632 25.6016 29 25.6016C29.9368 25.6016 30.6992 26.364 30.6992 27.3008ZM29 35.7969C24.3152 35.7969 20.5039 31.9856 20.5039 27.3008C20.5039 23.1979 23.4275 19.7649 27.3008 18.9755V22.4952C25.3228 23.197 23.9023 25.0856 23.9023 27.3008C23.9023 30.1116 26.1892 32.3984 29 32.3984C31.8108 32.3984 34.0977 30.1116 34.0977 27.3008C34.0977 25.0856 32.6772 23.197 30.6992 22.4952V18.9755C34.5725 19.7649 37.4961 23.1979 37.4961 27.3008C37.4961 31.9856 33.6848 35.7969 29 35.7969Z" fill="#403f3f"/>
<path d="M10.1953 56.1875H13.5938V52.7891H44.4062V56.1875H47.8047V52.7891H58V1.8125H0V52.7891H10.1953V56.1875ZM6.79688 35.7969H3.39844V18.8047H6.79688V35.7969ZM3.39844 39.1953H6.79688V45.9922H51.2031V8.60938H6.79688V15.4062H3.39844V5.21094H54.6016V49.3906H3.39844V39.1953ZM10.1953 42.5938V12.0078H47.8047V42.5938H10.1953Z" fill="#403f3f"/>
</svg>
