<svg width="84" height="81" viewBox="0 0 84 81" fill="none" xmlns="http://www.w3.org/2000/svg">
<rect x="34.5" y="31.5" width="46" height="46" stroke="#67BBBD" stroke-opacity="0.52" stroke-width="7"/>
<g clip-path="url(#clip0)">
<path d="M48.673 31.5194L42.6265 26.6822C42.1972 26.337 41.665 26.1522 41.1163 26.1522H37.7473L38.1776 28.8275C38.3978 30.1995 37.8147 31.578 36.674 32.3758C36.0522 32.8117 35.3253 33.0308 34.5962 33.0308C33.9866 33.0308 33.3758 32.877 32.8226 32.5683L25.9994 28.7434L19.1762 32.5661C17.9625 33.2465 16.4666 33.1735 15.3259 32.3747C14.1852 31.5769 13.5999 30.1984 13.8223 28.8253L14.2527 26.1511H10.8826C10.3327 26.1511 9.80053 26.3381 9.37125 26.6811L3.32473 31.5172C2.75162 31.9752 2.41748 32.6723 2.41748 33.4058V49.5804C2.41748 50.9158 3.50065 52.0001 4.83609 52.0001H47.1617C48.4971 52.0001 49.5814 50.9169 49.5814 49.5804V33.4058C49.5803 32.6734 49.2472 31.9775 48.673 31.5194ZM42.3245 44.5175C42.3245 45.1857 41.7845 45.7279 41.1163 45.7279H10.8815C10.2132 45.7279 9.67219 45.1868 9.67219 44.5175V38.471C9.67219 37.8027 10.2132 37.2605 10.8815 37.2605H41.114C41.7823 37.2605 42.3245 37.8016 42.3245 38.471V44.5175Z" fill="#403f3f"/>
<path d="M17.7545 19.6077L16.2088 29.2091C16.1347 29.6672 16.3294 30.1252 16.71 30.3908C17.0906 30.6574 17.5885 30.6829 17.9935 30.4561L25.9983 25.9718L34.0032 30.4561C34.1879 30.5612 34.3915 30.6121 34.594 30.6121C34.8374 30.6121 35.0797 30.539 35.2866 30.3941C35.6672 30.1286 35.863 29.6705 35.7878 29.2124L34.2422 19.6099L40.7777 12.8199C41.0908 12.4946 41.1959 12.0222 41.0521 11.5951C40.9083 11.1681 40.5376 10.8561 40.0917 10.7864L31.1221 9.39339L27.097 0.701462C26.8989 0.274389 26.4697 0 25.9994 0C25.5292 0 25.0999 0.274389 24.9019 0.701462L20.8768 9.39339L11.9071 10.783C11.4613 10.8527 11.0906 11.1647 10.9468 11.5918C10.8029 12.0189 10.9081 12.4913 11.2212 12.8166L17.7545 19.6077ZM23.0785 12.4283L23.7512 12.2844C25.7737 11.8463 25.2084 9.77178 26.7573 9.77178C27.3393 9.77178 27.8128 10.0229 27.8128 11.0076V21.3548C27.8128 22.3018 27.4477 22.9557 26.4298 22.9557C25.4097 22.9557 25.0457 22.3018 25.0457 21.3548V14.4331H22.6957C22.0949 14.4331 21.7663 14.2162 21.7663 13.4683C21.7652 12.7945 22.1303 12.6097 23.0785 12.4283Z" fill="#403f3f"/>
</g>
<defs>
<clipPath id="clip0">
<rect width="52" height="52" fill="white"/>
</clipPath>
</defs>
</svg>
