<svg width="85" height="81" viewBox="0 0 85 81" fill="none" xmlns="http://www.w3.org/2000/svg">
<rect x="35.5" y="31.5" width="46" height="46" stroke="#67BBBD" stroke-opacity="0.52" stroke-width="7"/>
<path d="M40.8444 38.3864L40.815 30.0481L37.4232 30.0601L37.4576 39.8126L46.0597 48.2737L48.4382 45.8556L40.8444 38.3864Z" fill="#403f3f"/>
<path d="M57.8869 37.0283V5.10815H50.8802V0.0200195H47.4883V5.10815H44.0961V0.0200195H40.7043V5.10815H37.3119V0.0200195H33.9201V5.10815H30.5278V0.0200195H27.1359V5.10815H23.7436V0.0200195H20.3521V5.10815H16.9599V0.0200195H13.568V5.10815H10.1759V0.0200195H6.78406V5.10815H0V53.0999H26.4507C29.9284 56.2541 34.3911 57.9801 39.1191 57.9801C44.1623 57.9801 48.9038 56.0162 52.4698 52.45C56.036 48.8839 58 44.1425 58 39.0993C57.9999 38.4025 57.961 37.7114 57.8869 37.0283ZM3.39186 49.7085V49.7082V8.50001H6.78417V12.4575H10.176V8.50001H13.5683V12.4575H16.9602V8.50001H20.3524V12.4575H23.7443V8.50001H27.1366V12.4575H30.5284V8.50001H33.9208V12.4575H37.3126V8.50001H40.7049V12.4575H44.0968V8.50001H47.489V12.4575H50.8809V8.50001H54.4959V28.1365C53.8929 27.2946 53.2174 26.4956 52.4705 25.7489C48.9043 22.1827 44.1629 20.2187 39.1198 20.2187C35.1632 20.2187 31.3928 21.428 28.2296 23.6708H10.2021V27.0627H24.5716C23.695 28.1182 22.9438 29.255 22.3245 30.455H10.2021V33.8469H20.976C20.6601 34.944 20.4421 36.074 20.3293 37.2266H10.202V40.6185H20.2989C20.5587 43.9026 21.659 47.0162 23.4954 49.7085H3.39186ZM50.0716 50.0518C47.5496 52.5738 44.3109 54.1178 40.815 54.4962V51.4072H37.4232V54.4962C33.9273 54.1179 30.6886 52.5738 28.1666 50.0518C25.6021 47.4874 24.0479 44.1818 23.7033 40.6182H26.4569V37.2264H23.742C24.1526 33.7983 25.6875 30.6265 28.1669 28.1471C30.6888 25.6252 33.9274 24.0811 37.4233 23.7028V26.4374H40.8152V23.7028C44.311 24.081 47.5497 25.6252 50.0717 28.1471C52.551 30.6263 54.0858 33.7983 54.4964 37.2264H51.8366V40.6182H54.5351C54.1904 44.1818 52.6359 47.4873 50.0716 50.0518Z" fill="#403f3f"/>
</svg>
