<svg width="85" height="81" viewBox="0 0 85 81" fill="none" xmlns="http://www.w3.org/2000/svg">
<rect x="35.5" y="31.5" width="46" height="46" stroke="#67BBBD" stroke-opacity="0.52" stroke-width="7"/>
<g clip-path="url(#clip0)">
<path d="M54.1434 29.7512C53.91 29.2737 53.91 28.7261 54.1434 28.2487L56.3066 23.8234C57.511 21.3595 56.5567 18.4227 54.1341 17.1373L49.783 14.8286C49.3135 14.5796 48.9917 14.1365 48.8998 13.6132L48.0489 8.76154C47.575 6.06025 45.0763 4.24505 42.3613 4.62918L37.4842 5.31906C36.9578 5.39337 36.4373 5.22413 36.0554 4.85472L32.5153 1.43002C30.5441 -0.476943 27.4561 -0.477056 25.485 1.43002L21.9447 4.85506C21.5627 5.22458 21.0422 5.39348 20.5159 5.3194L15.6389 4.62952C12.923 4.24516 10.4251 6.06059 9.95126 8.76188L9.1003 13.6133C9.00843 14.1367 8.6866 14.5797 8.21728 14.8289L3.86617 17.1375C1.44355 18.4228 0.489278 21.3598 1.69368 23.8238L3.85677 28.249C4.09013 28.7265 4.09013 29.274 3.85677 29.7514L1.69356 34.1766C0.489165 36.6406 1.44344 39.5774 3.86606 40.8628L8.21716 43.1714C8.6866 43.4204 9.00843 43.8636 9.1003 44.3868L9.95126 49.2385C10.3826 51.6976 12.4912 53.4222 14.9147 53.422C15.1533 53.422 15.3955 53.4052 15.639 53.3708L20.516 52.6809C21.042 52.6062 21.5629 52.7758 21.9448 53.1452L25.485 56.5699C26.4707 57.5235 27.7352 58.0002 29.0001 58.0001C30.2646 58 31.5299 57.5233 32.5152 56.5699L36.0554 53.1452C36.4374 52.7758 36.958 52.607 37.4842 52.6809L42.3613 53.3708C45.0775 53.755 47.575 51.9397 48.0489 49.2384L48.8999 44.3869C48.9918 43.8636 49.3137 43.4205 49.783 43.1714L54.1341 40.8628C56.5567 39.5775 57.511 36.6405 56.3066 34.1765L54.1434 29.7512ZM52.5662 37.9076L48.2151 40.2163C46.8278 40.9525 45.8764 42.2618 45.6051 43.8087L44.7541 48.6603C44.5938 49.5743 43.7489 50.1881 42.8298 50.0584L37.9527 49.3686C36.3974 49.1482 34.8584 49.6488 33.7295 50.7407L30.1893 54.1653C29.5225 54.8103 28.4777 54.8103 27.8107 54.1653L24.2706 50.7406C23.3166 49.8177 22.0693 49.3176 20.7673 49.3176C20.5287 49.3176 20.2882 49.3343 20.0474 49.3684L15.1703 50.0583C14.2521 50.1881 13.4064 49.5742 13.246 48.6602L12.395 43.8085C12.1235 42.2616 11.1722 40.9521 9.78485 40.2162L5.43375 37.9075C4.61405 37.4726 4.2912 36.479 4.69867 35.6454L6.86188 31.2201C7.55153 29.8091 7.55153 28.1907 6.86188 26.7797L4.69867 22.3544C4.2912 21.5208 4.61405 20.5272 5.43375 20.0923L9.78485 17.7837C11.1721 17.0475 12.1235 15.7382 12.3948 14.1912L13.2458 9.33961C13.4062 8.42566 14.2511 7.81168 15.1701 7.9415L20.0472 8.63138C21.6019 8.85149 23.1415 8.35113 24.2704 7.25922L27.8106 3.83452C28.4774 3.1895 29.5222 3.1895 30.1892 3.83452L33.7293 7.25922C34.8581 8.35124 36.3975 8.85149 37.9525 8.63138L42.8296 7.9415C43.748 7.81157 44.5936 8.42566 44.7539 9.33961L45.6048 14.1913C45.8763 15.7383 46.8276 17.0477 48.2149 17.7837L52.566 20.0923C53.3857 20.5272 53.7086 21.5208 53.3011 22.3544L51.1379 26.7796C50.4483 28.1905 50.4483 29.8091 51.1379 31.22L53.3011 35.6452C53.7087 36.479 53.3859 37.4727 52.5662 37.9076Z" fill="#403f3f"/>
<path d="M41.2213 16.7787C40.5682 16.1255 39.5091 16.1255 38.8559 16.7787L16.7788 38.856C16.1256 39.5091 16.1256 40.5682 16.7788 41.2214C17.1053 41.548 17.5334 41.7113 17.9614 41.7113C18.3894 41.7113 18.8176 41.5481 19.1441 41.2214L41.2212 19.1442C41.8746 18.4909 41.8746 17.432 41.2213 16.7787Z" fill="#403f3f"/>
<path d="M22.3097 13.9468C18.928 13.9468 16.1768 16.698 16.1768 20.0797C16.1768 23.4614 18.928 26.2126 22.3097 26.2126C25.6914 26.2126 28.4427 23.4614 28.4427 20.0797C28.4427 16.698 25.6914 13.9468 22.3097 13.9468ZM22.3097 22.8673C20.7726 22.8673 19.5221 21.6168 19.5221 20.0796C19.5221 18.5425 20.7726 17.292 22.3097 17.292C23.8468 17.292 25.0975 18.5425 25.0975 20.0796C25.0973 21.6168 23.8468 22.8673 22.3097 22.8673Z" fill="#403f3f"/>
<path d="M35.6903 31.7876C32.3087 31.7876 29.5574 34.5389 29.5574 37.9205C29.5574 41.3022 32.3087 44.0535 35.6903 44.0535C39.072 44.0535 41.8233 41.3022 41.8233 37.9205C41.8233 34.5389 39.072 31.7876 35.6903 31.7876ZM35.6903 40.7082C34.1532 40.7082 32.9026 39.4576 32.9026 37.9205C32.9026 36.3834 34.1531 35.1329 35.6903 35.1329C37.2275 35.1329 38.478 36.3834 38.478 37.9205C38.478 39.4576 37.2275 40.7082 35.6903 40.7082Z" fill="#403f3f"/>
</g>
<defs>
<clipPath id="clip0">
<rect width="58" height="58" fill="white"/>
</clipPath>
</defs>
</svg>
