<svg width="85" height="81" viewBox="0 0 85 81" fill="none" xmlns="http://www.w3.org/2000/svg">
<rect x="35.5" y="31.5" width="46" height="46" stroke="#67BBBD" stroke-opacity="0.52" stroke-width="7"/>
<g clip-path="url(#clip0)">
<path d="M48.5215 36.169C50.9451 32.4883 52.3581 28.0858 52.3581 23.3585C52.3581 10.4785 41.8791 0 28.9991 0C16.1191 0 5.64061 10.4785 5.64061 23.3585C5.64061 28.0858 7.05353 32.4883 9.47668 36.169L0.339844 49.4942L10.7949 47.5449L12.7446 58L21.361 45.4333C23.7559 46.2643 26.3255 46.717 28.9991 46.717C31.6732 46.717 34.2428 46.2643 36.6372 45.4333L45.2541 58L47.2033 47.5449L57.6584 49.4942L48.5215 36.169ZM14.592 49.2605L13.5287 43.5575L7.82614 44.6213L11.6742 39.009C13.5172 41.0472 15.7142 42.7588 18.1666 44.0483L14.592 49.2605ZM9.05896 23.3585C9.05896 12.3636 18.0042 3.41835 28.9991 3.41835C39.9945 3.41835 48.9397 12.3636 48.9397 23.3585C48.9397 34.3539 39.9945 43.2991 28.9991 43.2991C18.0042 43.2991 9.05896 34.3539 9.05896 23.3585ZM44.4695 43.5575L43.4062 49.2605L39.8321 44.0483C42.2844 42.7588 44.4815 41.0472 46.3245 39.009L50.1725 44.6209L44.4695 43.5575Z" fill="#403f3f"/>
<path d="M24.8351 28.4884L19.2773 22.931L16.8603 25.3479L24.8351 33.3228L41.1384 17.02L38.7214 14.603L24.8351 28.4884Z" fill="#403f3f"/>
</g>
<defs>
<clipPath id="clip0">
<rect width="58" height="58" fill="white"/>
</clipPath>
</defs>
</svg>
